<?xml version="1.0" encoding="utf-8"?>
<!-- Generator: Adobe Illustrator 24.0.1, SVG Export Plug-In . SVG Version: 6.00 Build 0)  -->
<svg version="1.1" id="Слой_1" xmlns="http://www.w3.org/2000/svg" xmlns:xlink="http://www.w3.org/1999/xlink" x="0px" y="0px"
	 viewBox="0 0 64 64" style="enable-background:new 0 0 64 64;" xml:space="preserve">
<style type="text/css">
	.st0{fill:#727372;}
	.st1{fill:url(#SVGID_1_);}
	.st2{fill:url(#SVGID_2_);}
	.st3{fill:url(#SVGID_3_);}
	.st4{fill:url(#SVGID_4_);}
	.st5{fill:url(#SVGID_5_);}
	.st6{fill:url(#SVGID_6_);}
	.st7{fill:url(#SVGID_7_);}
	.st8{fill:url(#SVGID_8_);}
	.st9{fill:url(#SVGID_9_);}
</style>
<g>
	<g>
		<g>
			<path class="st0" d="M33.4,8l0.7,0.7L34.8,8H33.4z"/>
			<path class="st0" d="M56.8,16.8c-0.6-2.5-2-4.7-3.9-6.3c-1.1-0.9-2.3-1.5-3.7-2C48.1,8.2,47,8,45.8,8h-11l-0.7,0.7L33.4,8H18.2
				c-1.6,0-3.1,0.3-4.5,0.9c-3.3,1.4-5.7,4.4-6.5,7.9C7,17.6,7,18.4,7,19.3v27.6c0,6.2,5,11.3,11.3,11.3h27.6C52,58.1,57,53,57,46.8
				V19.3C57,18.4,56.9,17.6,56.8,16.8z M53,46.8c0,4-3.3,7.3-7.3,7.3H18.2c-4,0-7.3-3.3-7.3-7.3V19.3c0-0.8,0.1-1.7,0.4-2.4
				c0.8-2.4,2.9-4.3,5.5-4.7c0.4-0.1,0.9-0.1,1.3-0.1h27.6c1.6,0,3,0.5,4.2,1.4c1.2,0.8,2.1,2.1,2.6,3.5c0.3,0.8,0.4,1.6,0.4,2.4
				V46.8z"/>
		</g>
		<g>
			<path class="st0" d="M53,19.3v1.6H11v-1.6c0-0.8,0.1-1.7,0.4-2.4h41.2C52.9,17.6,53,18.4,53,19.3z"/>
		</g>
		<g>
			<g>
				<polygon class="st0" points="42.2,16.8 36.5,16.8 34.1,14.4 31.7,12 37.4,12 41.5,16.2 				"/>
				<polygon class="st0" points="42.5,20.8 41.5,21.8 37.4,26 31.7,26 36.9,20.8 				"/>
			</g>
			<g>
				<path class="st0" d="M27.3,16.8h-5.7l-4.7-4.7c0.4-0.1,0.9-0.1,1.3-0.1h4.2l4.2,4.2L27.3,16.8z"/>
				<polygon class="st0" points="27.6,20.8 22.4,26 16.8,26 21.9,20.8 				"/>
			</g>
		</g>
		<g>
			<rect x="11" y="26" class="st0" width="42.1" height="4"/>
		</g>
	</g>
	<polygon class="st0" points="39,41.2 26.1,33.7 26.1,48.7 	"/>
</g>
</svg>
