<?xml version="1.0" encoding="utf-8"?>
<!-- Generator: Adobe Illustrator 24.0.1, SVG Export Plug-In . SVG Version: 6.00 Build 0)  -->
<svg version="1.1" id="Слой_1" xmlns="http://www.w3.org/2000/svg" xmlns:xlink="http://www.w3.org/1999/xlink" x="0px" y="0px"
	 viewBox="0 0 64 64" style="enable-background:new 0 0 64 64;" xml:space="preserve">
<style type="text/css">
	.st0{fill:#727372;}
	.st1{fill:url(#SVGID_1_);}
	.st2{fill:url(#SVGID_2_);}
	.st3{fill:url(#SVGID_3_);}
	.st4{fill:url(#SVGID_4_);}
	.st5{fill:url(#SVGID_5_);}
	.st6{fill:url(#SVGID_6_);}
	.st7{fill:url(#SVGID_7_);}
	.st8{fill:url(#SVGID_8_);}
	.st9{fill:url(#SVGID_9_);}
</style>
<g>
	<g>
		<g>
			<linearGradient id="SVGID_1_" gradientUnits="userSpaceOnUse" x1="0.763" y1="9.9174" x2="56.443" y2="7.2774">
				<stop  offset="0" style="stop-color:#1A6DFF"/>
				<stop  offset="1" style="stop-color:#C822FF"/>
			</linearGradient>
			<path class="st1" d="M33.4,8l0.7,0.7L34.8,8H33.4z"/>
			<linearGradient id="SVGID_2_" gradientUnits="userSpaceOnUse" x1="1.9269" y1="34.4659" x2="57.6069" y2="31.8259">
				<stop  offset="0" style="stop-color:#1A6DFF"/>
				<stop  offset="1" style="stop-color:#C822FF"/>
			</linearGradient>
			<path class="st2" d="M56.8,16.8c-0.6-2.5-2-4.7-3.9-6.3c-1.1-0.9-2.3-1.5-3.7-2C48.1,8.2,47,8,45.8,8h-11l-0.7,0.7L33.4,8H18.2
				c-1.6,0-3.1,0.3-4.5,0.9c-3.3,1.4-5.7,4.4-6.5,7.9C7,17.6,7,18.4,7,19.3v27.6c0,6.2,5,11.3,11.3,11.3h27.6C52,58.1,57,53,57,46.8
				V19.3C57,18.4,56.9,17.6,56.8,16.8z M53,46.8c0,4-3.3,7.3-7.3,7.3H18.2c-4,0-7.3-3.3-7.3-7.3V19.3c0-0.8,0.1-1.7,0.4-2.4
				c0.8-2.4,2.9-4.3,5.5-4.7c0.4-0.1,0.9-0.1,1.3-0.1h27.6c1.6,0,3,0.5,4.2,1.4c1.2,0.8,2.1,2.1,2.6,3.5c0.3,0.8,0.4,1.6,0.4,2.4
				V46.8z"/>
		</g>
		<g>
			<linearGradient id="SVGID_3_" gradientUnits="userSpaceOnUse" x1="1.2556" y1="20.3077" x2="56.9356" y2="17.6677">
				<stop  offset="0" style="stop-color:#1A6DFF"/>
				<stop  offset="1" style="stop-color:#C822FF"/>
			</linearGradient>
			<path class="st3" d="M53,19.3v1.6H11v-1.6c0-0.8,0.1-1.7,0.4-2.4h41.2C52.9,17.6,53,18.4,53,19.3z"/>
		</g>
		<g>
			<g>
				<linearGradient id="SVGID_4_" gradientUnits="userSpaceOnUse" x1="1.0572" y1="16.1221" x2="56.7372" y2="13.4821">
					<stop  offset="0" style="stop-color:#1A6DFF"/>
					<stop  offset="1" style="stop-color:#C822FF"/>
				</linearGradient>
				<polygon class="st4" points="42.2,16.8 36.5,16.8 34.1,14.4 31.7,12 37.4,12 41.5,16.2 				"/>
				<linearGradient id="SVGID_5_" gradientUnits="userSpaceOnUse" x1="1.4833" y1="25.1102" x2="57.1633" y2="22.4702">
					<stop  offset="0" style="stop-color:#1A6DFF"/>
					<stop  offset="1" style="stop-color:#C822FF"/>
				</linearGradient>
				<polygon class="st5" points="42.5,20.8 41.5,21.8 37.4,26 31.7,26 36.9,20.8 				"/>
			</g>
			<g>
				<linearGradient id="SVGID_6_" gradientUnits="userSpaceOnUse" x1="1.0251" y1="15.4452" x2="56.7051" y2="12.8052">
					<stop  offset="0" style="stop-color:#1A6DFF"/>
					<stop  offset="1" style="stop-color:#C822FF"/>
				</linearGradient>
				<path class="st6" d="M27.3,16.8h-5.7l-4.7-4.7c0.4-0.1,0.9-0.1,1.3-0.1h4.2l4.2,4.2L27.3,16.8z"/>
				<linearGradient id="SVGID_7_" gradientUnits="userSpaceOnUse" x1="1.4498" y1="24.4029" x2="57.1298" y2="21.7629">
					<stop  offset="0" style="stop-color:#1A6DFF"/>
					<stop  offset="1" style="stop-color:#C822FF"/>
				</linearGradient>
				<polygon class="st7" points="27.6,20.8 22.4,26 16.8,26 21.9,20.8 				"/>
			</g>
		</g>
		<g>
			<linearGradient id="SVGID_8_" gradientUnits="userSpaceOnUse" x1="1.6885" y1="29.4372" x2="57.3685" y2="26.7972">
				<stop  offset="0" style="stop-color:#1A6DFF"/>
				<stop  offset="1" style="stop-color:#C822FF"/>
			</linearGradient>
			<rect x="11" y="26" class="st8" width="42.1" height="4"/>
		</g>
	</g>
	<linearGradient id="SVGID_9_" gradientUnits="userSpaceOnUse" x1="2.3005" y1="42.3458" x2="57.9805" y2="39.7058">
		<stop  offset="0" style="stop-color:#1A6DFF"/>
		<stop  offset="1" style="stop-color:#C822FF"/>
	</linearGradient>
	<polygon class="st9" points="39,41.2 26.1,33.7 26.1,48.7 	"/>
</g>
</svg>
